<?xml version="1.0" encoding="utf-8" standalone="no"?>
<!DOCTYPE svg PUBLIC "-//W3C//DTD SVG 1.1//EN"
  "http://www.w3.org/Graphics/SVG/1.1/DTD/svg11.dtd">
<svg xmlns:xlink="http://www.w3.org/1999/xlink" width="449.768437pt" height="321.381239pt" viewBox="0 0 449.768437 321.381239" xmlns="http://www.w3.org/2000/svg" version="1.1">
 <metadata>
  <rdf:RDF xmlns:dc="http://purl.org/dc/elements/1.1/" xmlns:cc="http://creativecommons.org/ns#" xmlns:rdf="http://www.w3.org/1999/02/22-rdf-syntax-ns#">
   <cc:Work>
    <dc:type rdf:resource="http://purl.org/dc/dcmitype/StillImage"/>
    <dc:date>2022-04-13T19:59:15.034547</dc:date>
    <dc:format>image/svg+xml</dc:format>
    <dc:creator>
     <cc:Agent>
      <dc:title>Matplotlib v3.5.1, https://matplotlib.org/</dc:title>
     </cc:Agent>
    </dc:creator>
   </cc:Work>
  </rdf:RDF>
 </metadata>
 <defs>
  <style type="text/css">*{stroke-linejoin: round; stroke-linecap: butt}</style>
 </defs>
 <g id="figure_1">
  <g id="patch_1">
   <path d="M 0 321.381239 
L 449.768437 321.381239 
L 449.768437 0 
L 0 0 
L 0 321.381239 
z
" style="fill: none"/>
  </g>
  <g id="axes_1">
   <g id="patch_2">
    <path d="M 51.968438 279 
L 442.568438 279 
L 442.568438 7.2 
L 51.968438 7.2 
z
" style="fill: #ffffff"/>
   </g>
   <g id="matplotlib.axis_1">
    <g id="xtick_1">
     <g id="line2d_1">
      <defs>
       <path id="m99e8e7ba19" d="M 0 0 
L 0 3.5 
" style="stroke: #343a3f; stroke-width: 0.8"/>
      </defs>
      <g>
       <use xlink:href="#m99e8e7ba19" x="81.559347" y="279" style="fill: #343a3f; stroke: #343a3f; stroke-width: 0.8"/>
      </g>
     </g>
     <g id="text_1">
      <!-- 000 -->
      <g style="fill: #343a3f" transform="translate(80.801931 313.223583)rotate(-70)scale(0.14 -0.14)">
       <defs>
        <path id="IBMPlexSans-30" d="M 1920 -77 
Q 1120 -77 752 531 
Q 384 1139 384 2234 
Q 384 3328 752 3936 
Q 1120 4544 1920 4544 
Q 2720 4544 3088 3936 
Q 3456 3328 3456 2234 
Q 3456 1139 3088 531 
Q 2720 -77 1920 -77 
z
M 1920 390 
Q 2182 390 2368 499 
Q 2554 608 2669 806 
Q 2784 1005 2838 1273 
Q 2893 1542 2893 1869 
L 2893 2598 
Q 2893 2925 2838 3193 
Q 2784 3462 2669 3660 
Q 2554 3859 2368 3968 
Q 2182 4077 1920 4077 
Q 1658 4077 1472 3968 
Q 1286 3859 1171 3660 
Q 1056 3462 1001 3193 
Q 947 2925 947 2598 
L 947 1869 
Q 947 1542 1001 1273 
Q 1056 1005 1171 806 
Q 1286 608 1472 499 
Q 1658 390 1920 390 
z
" transform="scale(0.015625)"/>
       </defs>
       <use xlink:href="#IBMPlexSans-30"/>
       <use xlink:href="#IBMPlexSans-30" x="59.999985"/>
       <use xlink:href="#IBMPlexSans-30" x="119.999969"/>
      </g>
     </g>
    </g>
    <g id="xtick_2">
     <g id="line2d_2">
      <g>
       <use xlink:href="#m99e8e7ba19" x="128.904801" y="279" style="fill: #343a3f; stroke: #343a3f; stroke-width: 0.8"/>
      </g>
     </g>
     <g id="text_2">
      <!-- 001 -->
      <g style="fill: #343a3f" transform="translate(128.147385 313.223583)rotate(-70)scale(0.14 -0.14)">
       <defs>
        <path id="IBMPlexSans-31" d="M 563 0 
L 563 474 
L 1811 474 
L 1811 4070 
L 1766 4070 
L 640 3021 
L 326 3360 
L 1510 4467 
L 2349 4467 
L 2349 474 
L 3501 474 
L 3501 0 
L 563 0 
z
" transform="scale(0.015625)"/>
       </defs>
       <use xlink:href="#IBMPlexSans-30"/>
       <use xlink:href="#IBMPlexSans-30" x="59.999985"/>
       <use xlink:href="#IBMPlexSans-31" x="119.999969"/>
      </g>
     </g>
    </g>
    <g id="xtick_3">
     <g id="line2d_3">
      <g>
       <use xlink:href="#m99e8e7ba19" x="176.250256" y="279" style="fill: #343a3f; stroke: #343a3f; stroke-width: 0.8"/>
      </g>
     </g>
     <g id="text_3">
      <!-- 010 -->
      <g style="fill: #343a3f" transform="translate(175.49284 313.223583)rotate(-70)scale(0.14 -0.14)">
       <use xlink:href="#IBMPlexSans-30"/>
       <use xlink:href="#IBMPlexSans-31" x="59.999985"/>
       <use xlink:href="#IBMPlexSans-30" x="119.999969"/>
      </g>
     </g>
    </g>
    <g id="xtick_4">
     <g id="line2d_4">
      <g>
       <use xlink:href="#m99e8e7ba19" x="223.59571" y="279" style="fill: #343a3f; stroke: #343a3f; stroke-width: 0.8"/>
      </g>
     </g>
     <g id="text_4">
      <!-- 011 -->
      <g style="fill: #343a3f" transform="translate(222.838295 313.223583)rotate(-70)scale(0.14 -0.14)">
       <use xlink:href="#IBMPlexSans-30"/>
       <use xlink:href="#IBMPlexSans-31" x="59.999985"/>
       <use xlink:href="#IBMPlexSans-31" x="119.999969"/>
      </g>
     </g>
    </g>
    <g id="xtick_5">
     <g id="line2d_5">
      <g>
       <use xlink:href="#m99e8e7ba19" x="270.941165" y="279" style="fill: #343a3f; stroke: #343a3f; stroke-width: 0.8"/>
      </g>
     </g>
     <g id="text_5">
      <!-- 100 -->
      <g style="fill: #343a3f" transform="translate(270.183749 313.223583)rotate(-70)scale(0.14 -0.14)">
       <use xlink:href="#IBMPlexSans-31"/>
       <use xlink:href="#IBMPlexSans-30" x="59.999985"/>
       <use xlink:href="#IBMPlexSans-30" x="119.999969"/>
      </g>
     </g>
    </g>
    <g id="xtick_6">
     <g id="line2d_6">
      <g>
       <use xlink:href="#m99e8e7ba19" x="318.286619" y="279" style="fill: #343a3f; stroke: #343a3f; stroke-width: 0.8"/>
      </g>
     </g>
     <g id="text_6">
      <!-- 101 -->
      <g style="fill: #343a3f" transform="translate(317.529204 313.223583)rotate(-70)scale(0.14 -0.14)">
       <use xlink:href="#IBMPlexSans-31"/>
       <use xlink:href="#IBMPlexSans-30" x="59.999985"/>
       <use xlink:href="#IBMPlexSans-31" x="119.999969"/>
      </g>
     </g>
    </g>
    <g id="xtick_7">
     <g id="line2d_7">
      <g>
       <use xlink:href="#m99e8e7ba19" x="365.632074" y="279" style="fill: #343a3f; stroke: #343a3f; stroke-width: 0.8"/>
      </g>
     </g>
     <g id="text_7">
      <!-- 110 -->
      <g style="fill: #343a3f" transform="translate(364.874658 313.223583)rotate(-70)scale(0.14 -0.14)">
       <use xlink:href="#IBMPlexSans-31"/>
       <use xlink:href="#IBMPlexSans-31" x="59.999985"/>
       <use xlink:href="#IBMPlexSans-30" x="119.999969"/>
      </g>
     </g>
    </g>
    <g id="xtick_8">
     <g id="line2d_8">
      <g>
       <use xlink:href="#m99e8e7ba19" x="412.977528" y="279" style="fill: #343a3f; stroke: #343a3f; stroke-width: 0.8"/>
      </g>
     </g>
     <g id="text_8">
      <!-- 111 -->
      <g style="fill: #343a3f" transform="translate(412.220113 313.223583)rotate(-70)scale(0.14 -0.14)">
       <use xlink:href="#IBMPlexSans-31"/>
       <use xlink:href="#IBMPlexSans-31" x="59.999985"/>
       <use xlink:href="#IBMPlexSans-31" x="119.999969"/>
      </g>
     </g>
    </g>
   </g>
   <g id="matplotlib.axis_2">
    <g id="ytick_1">
     <g id="line2d_9">
      <path d="M 51.968438 279 
L 442.568438 279 
" clip-path="url(#pd7e7bc595c)" style="fill: none; stroke-dasharray: 2.96,1.28; stroke-dashoffset: 0; stroke: #dde1e6; stroke-width: 0.8"/>
     </g>
     <g id="line2d_10">
      <defs>
       <path id="m64fc199c22" d="M 0 0 
L -3.5 0 
" style="stroke: #343a3f; stroke-width: 0.8"/>
      </defs>
      <g>
       <use xlink:href="#m64fc199c22" x="51.968438" y="279" style="fill: #343a3f; stroke: #343a3f; stroke-width: 0.8"/>
      </g>
     </g>
     <g id="text_9">
      <!-- 0.0 -->
      <g style="fill: #343a3f" transform="translate(24.36 284.18)scale(0.14 -0.14)">
       <defs>
        <path id="IBMPlexSans-2e" d="M 870 -77 
Q 666 -77 573 25 
Q 480 128 480 294 
L 480 378 
Q 480 544 573 646 
Q 666 749 870 749 
Q 1075 749 1168 646 
Q 1261 544 1261 378 
L 1261 294 
Q 1261 128 1168 25 
Q 1075 -77 870 -77 
z
" transform="scale(0.015625)"/>
       </defs>
       <use xlink:href="#IBMPlexSans-30"/>
       <use xlink:href="#IBMPlexSans-2e" x="59.999985"/>
       <use xlink:href="#IBMPlexSans-30" x="87.199982"/>
      </g>
     </g>
    </g>
    <g id="ytick_2">
     <g id="line2d_11">
      <path d="M 51.968438 221.016 
L 442.568438 221.016 
" clip-path="url(#pd7e7bc595c)" style="fill: none; stroke-dasharray: 2.96,1.28; stroke-dashoffset: 0; stroke: #dde1e6; stroke-width: 0.8"/>
     </g>
     <g id="line2d_12">
      <g>
       <use xlink:href="#m64fc199c22" x="51.968438" y="221.016" style="fill: #343a3f; stroke: #343a3f; stroke-width: 0.8"/>
      </g>
     </g>
     <g id="text_10">
      <!-- 0.2 -->
      <g style="fill: #343a3f" transform="translate(24.36 226.196)scale(0.14 -0.14)">
       <defs>
        <path id="IBMPlexSans-32" d="M 3411 0 
L 480 0 
L 480 550 
L 1939 1894 
Q 2253 2182 2464 2505 
Q 2675 2829 2675 3155 
L 2675 3232 
Q 2675 3603 2470 3833 
Q 2266 4064 1850 4064 
Q 1645 4064 1491 4006 
Q 1338 3949 1226 3846 
Q 1114 3744 1040 3606 
Q 966 3469 922 3309 
L 442 3494 
Q 506 3693 618 3881 
Q 730 4070 899 4217 
Q 1069 4365 1309 4454 
Q 1549 4544 1875 4544 
Q 2202 4544 2458 4448 
Q 2714 4352 2886 4179 
Q 3059 4006 3152 3769 
Q 3245 3533 3245 3245 
Q 3245 2982 3171 2758 
Q 3098 2534 2970 2332 
Q 2842 2131 2659 1939 
Q 2477 1747 2266 1555 
L 1062 474 
L 3411 474 
L 3411 0 
z
" transform="scale(0.015625)"/>
       </defs>
       <use xlink:href="#IBMPlexSans-30"/>
       <use xlink:href="#IBMPlexSans-2e" x="59.999985"/>
       <use xlink:href="#IBMPlexSans-32" x="87.199982"/>
      </g>
     </g>
    </g>
    <g id="ytick_3">
     <g id="line2d_13">
      <path d="M 51.968438 163.032 
L 442.568438 163.032 
" clip-path="url(#pd7e7bc595c)" style="fill: none; stroke-dasharray: 2.96,1.28; stroke-dashoffset: 0; stroke: #dde1e6; stroke-width: 0.8"/>
     </g>
     <g id="line2d_14">
      <g>
       <use xlink:href="#m64fc199c22" x="51.968438" y="163.032" style="fill: #343a3f; stroke: #343a3f; stroke-width: 0.8"/>
      </g>
     </g>
     <g id="text_11">
      <!-- 0.4 -->
      <g style="fill: #343a3f" transform="translate(24.36 168.212)scale(0.14 -0.14)">
       <defs>
        <path id="IBMPlexSans-34" d="M 2400 0 
L 2400 877 
L 243 877 
L 243 1350 
L 2112 4467 
L 2912 4467 
L 2912 1325 
L 3558 1325 
L 3558 877 
L 2912 877 
L 2912 0 
L 2400 0 
z
M 749 1325 
L 2400 1325 
L 2400 4051 
L 2368 4051 
L 749 1325 
z
" transform="scale(0.015625)"/>
       </defs>
       <use xlink:href="#IBMPlexSans-30"/>
       <use xlink:href="#IBMPlexSans-2e" x="59.999985"/>
       <use xlink:href="#IBMPlexSans-34" x="87.199982"/>
      </g>
     </g>
    </g>
    <g id="ytick_4">
     <g id="line2d_15">
      <path d="M 51.968438 105.048 
L 442.568438 105.048 
" clip-path="url(#pd7e7bc595c)" style="fill: none; stroke-dasharray: 2.96,1.28; stroke-dashoffset: 0; stroke: #dde1e6; stroke-width: 0.8"/>
     </g>
     <g id="line2d_16">
      <g>
       <use xlink:href="#m64fc199c22" x="51.968438" y="105.048" style="fill: #343a3f; stroke: #343a3f; stroke-width: 0.8"/>
      </g>
     </g>
     <g id="text_12">
      <!-- 0.6 -->
      <g style="fill: #343a3f" transform="translate(24.36 110.228)scale(0.14 -0.14)">
       <defs>
        <path id="IBMPlexSans-36" d="M 1926 -77 
Q 1581 -77 1302 41 
Q 1024 160 829 381 
Q 634 602 531 922 
Q 429 1242 429 1638 
Q 429 2138 576 2576 
Q 723 3014 956 3376 
Q 1190 3738 1472 4016 
Q 1754 4294 2022 4467 
L 2714 4467 
Q 2355 4205 2073 3955 
Q 1792 3706 1581 3434 
Q 1370 3162 1222 2851 
Q 1075 2541 986 2150 
L 1018 2138 
Q 1178 2413 1430 2595 
Q 1683 2778 2093 2778 
Q 2381 2778 2624 2682 
Q 2867 2586 3040 2406 
Q 3213 2227 3312 1971 
Q 3411 1715 3411 1402 
Q 3411 1075 3305 803 
Q 3200 531 3005 336 
Q 2810 141 2534 32 
Q 2259 -77 1926 -77 
z
M 1920 390 
Q 2362 390 2608 633 
Q 2854 877 2854 1331 
L 2854 1382 
Q 2854 1837 2608 2080 
Q 2362 2323 1920 2323 
Q 1478 2323 1232 2080 
Q 986 1837 986 1382 
L 986 1331 
Q 986 877 1232 633 
Q 1478 390 1920 390 
z
" transform="scale(0.015625)"/>
       </defs>
       <use xlink:href="#IBMPlexSans-30"/>
       <use xlink:href="#IBMPlexSans-2e" x="59.999985"/>
       <use xlink:href="#IBMPlexSans-36" x="87.199982"/>
      </g>
     </g>
    </g>
    <g id="ytick_5">
     <g id="line2d_17">
      <path d="M 51.968438 47.064 
L 442.568438 47.064 
" clip-path="url(#pd7e7bc595c)" style="fill: none; stroke-dasharray: 2.96,1.28; stroke-dashoffset: 0; stroke: #dde1e6; stroke-width: 0.8"/>
     </g>
     <g id="line2d_18">
      <g>
       <use xlink:href="#m64fc199c22" x="51.968438" y="47.064" style="fill: #343a3f; stroke: #343a3f; stroke-width: 0.8"/>
      </g>
     </g>
     <g id="text_13">
      <!-- 0.8 -->
      <g style="fill: #343a3f" transform="translate(24.36 52.244)scale(0.14 -0.14)">
       <defs>
        <path id="IBMPlexSans-38" d="M 1920 -77 
Q 1536 -77 1248 22 
Q 960 122 765 294 
Q 570 467 470 704 
Q 371 941 371 1216 
Q 371 1677 620 1945 
Q 870 2214 1274 2323 
L 1274 2374 
Q 922 2496 714 2768 
Q 506 3040 506 3424 
Q 506 3936 877 4240 
Q 1248 4544 1920 4544 
Q 2592 4544 2963 4240 
Q 3334 3936 3334 3424 
Q 3334 3040 3126 2768 
Q 2918 2496 2566 2374 
L 2566 2323 
Q 2970 2214 3219 1945 
Q 3469 1677 3469 1216 
Q 3469 941 3369 704 
Q 3270 467 3075 294 
Q 2880 122 2592 22 
Q 2304 -77 1920 -77 
z
M 1920 390 
Q 2387 390 2643 598 
Q 2899 806 2899 1190 
L 2899 1325 
Q 2899 1709 2643 1917 
Q 2387 2125 1920 2125 
Q 1453 2125 1197 1917 
Q 941 1709 941 1325 
L 941 1190 
Q 941 806 1197 598 
Q 1453 390 1920 390 
z
M 1920 2573 
Q 2342 2573 2560 2752 
Q 2778 2931 2778 3277 
L 2778 3373 
Q 2778 3718 2560 3897 
Q 2342 4077 1920 4077 
Q 1498 4077 1280 3897 
Q 1062 3718 1062 3373 
L 1062 3277 
Q 1062 2931 1280 2752 
Q 1498 2573 1920 2573 
z
" transform="scale(0.015625)"/>
       </defs>
       <use xlink:href="#IBMPlexSans-30"/>
       <use xlink:href="#IBMPlexSans-2e" x="59.999985"/>
       <use xlink:href="#IBMPlexSans-38" x="87.199982"/>
      </g>
     </g>
    </g>
    <g id="text_14">
     <!-- Probabilities -->
     <g style="fill: #343a3f" transform="translate(17.56 182.552656)rotate(-90)scale(0.14 -0.14)">
      <defs>
       <path id="IBMPlexSans-50" d="M 595 0 
L 595 4467 
L 2374 4467 
Q 2976 4467 3299 4124 
Q 3622 3782 3622 3187 
Q 3622 2592 3299 2249 
Q 2976 1907 2374 1907 
L 1133 1907 
L 1133 0 
L 595 0 
z
M 1133 2381 
L 2374 2381 
Q 2694 2381 2870 2547 
Q 3046 2714 3046 3021 
L 3046 3354 
Q 3046 3661 2870 3827 
Q 2694 3994 2374 3994 
L 1133 3994 
L 1133 2381 
z
" transform="scale(0.015625)"/>
       <path id="IBMPlexSans-72" d="M 544 0 
L 544 3302 
L 1056 3302 
L 1056 2694 
L 1088 2694 
Q 1178 2931 1408 3116 
Q 1638 3302 2042 3302 
L 2240 3302 
L 2240 2790 
L 1939 2790 
Q 1523 2790 1289 2633 
Q 1056 2477 1056 2240 
L 1056 0 
L 544 0 
z
" transform="scale(0.015625)"/>
       <path id="IBMPlexSans-6f" d="M 1792 -77 
Q 1459 -77 1184 44 
Q 909 166 713 393 
Q 518 621 409 937 
Q 301 1254 301 1651 
Q 301 2042 409 2362 
Q 518 2682 713 2909 
Q 909 3136 1184 3257 
Q 1459 3379 1792 3379 
Q 2125 3379 2397 3257 
Q 2669 3136 2867 2909 
Q 3066 2682 3174 2362 
Q 3283 2042 3283 1651 
Q 3283 1254 3174 937 
Q 3066 621 2867 393 
Q 2669 166 2397 44 
Q 2125 -77 1792 -77 
z
M 1792 378 
Q 2208 378 2470 634 
Q 2733 890 2733 1414 
L 2733 1888 
Q 2733 2413 2470 2669 
Q 2208 2925 1792 2925 
Q 1376 2925 1113 2669 
Q 851 2413 851 1888 
L 851 1414 
Q 851 890 1113 634 
Q 1376 378 1792 378 
z
" transform="scale(0.015625)"/>
       <path id="IBMPlexSans-62" d="M 544 4736 
L 1056 4736 
L 1056 2765 
L 1082 2765 
Q 1210 3078 1456 3228 
Q 1702 3379 2048 3379 
Q 2355 3379 2604 3257 
Q 2854 3136 3030 2912 
Q 3206 2688 3299 2368 
Q 3392 2048 3392 1651 
Q 3392 1254 3299 934 
Q 3206 614 3030 390 
Q 2854 166 2604 44 
Q 2355 -77 2048 -77 
Q 1376 -77 1082 538 
L 1056 538 
L 1056 0 
L 544 0 
L 544 4736 
z
M 1907 384 
Q 2342 384 2592 656 
Q 2842 928 2842 1370 
L 2842 1933 
Q 2842 2374 2592 2646 
Q 2342 2918 1907 2918 
Q 1734 2918 1577 2870 
Q 1421 2822 1305 2739 
Q 1190 2656 1123 2537 
Q 1056 2419 1056 2285 
L 1056 1056 
Q 1056 896 1123 771 
Q 1190 646 1305 560 
Q 1421 474 1577 429 
Q 1734 384 1907 384 
z
" transform="scale(0.015625)"/>
       <path id="IBMPlexSans-61" d="M 2944 0 
Q 2656 0 2531 153 
Q 2406 307 2374 538 
L 2342 538 
Q 2234 230 1984 76 
Q 1734 -77 1389 -77 
Q 864 -77 573 192 
Q 282 461 282 922 
Q 282 1389 624 1638 
Q 966 1888 1690 1888 
L 2342 1888 
L 2342 2214 
Q 2342 2566 2150 2752 
Q 1958 2938 1562 2938 
Q 1261 2938 1059 2803 
Q 858 2669 723 2445 
L 416 2733 
Q 550 3002 844 3190 
Q 1139 3379 1587 3379 
Q 2189 3379 2521 3084 
Q 2854 2790 2854 2266 
L 2854 448 
L 3232 448 
L 3232 0 
L 2944 0 
z
M 1472 358 
Q 1664 358 1824 403 
Q 1984 448 2099 531 
Q 2214 614 2278 723 
Q 2342 832 2342 960 
L 2342 1504 
L 1664 1504 
Q 1222 1504 1020 1376 
Q 819 1248 819 1005 
L 819 870 
Q 819 627 995 492 
Q 1171 358 1472 358 
z
" transform="scale(0.015625)"/>
       <path id="IBMPlexSans-69" d="M 800 4077 
Q 634 4077 560 4157 
Q 486 4237 486 4365 
L 486 4448 
Q 486 4576 560 4656 
Q 634 4736 800 4736 
Q 966 4736 1040 4656 
Q 1114 4576 1114 4448 
L 1114 4365 
Q 1114 4237 1040 4157 
Q 966 4077 800 4077 
z
M 544 3302 
L 1056 3302 
L 1056 0 
L 544 0 
L 544 3302 
z
" transform="scale(0.015625)"/>
       <path id="IBMPlexSans-6c" d="M 1088 0 
Q 819 0 681 150 
Q 544 301 544 531 
L 544 4736 
L 1056 4736 
L 1056 448 
L 1542 448 
L 1542 0 
L 1088 0 
z
" transform="scale(0.015625)"/>
       <path id="IBMPlexSans-74" d="M 1274 0 
Q 1005 0 867 150 
Q 730 301 730 544 
L 730 2854 
L 186 2854 
L 186 3302 
L 493 3302 
Q 659 3302 720 3369 
Q 781 3437 781 3603 
L 781 4218 
L 1242 4218 
L 1242 3302 
L 1965 3302 
L 1965 2854 
L 1242 2854 
L 1242 448 
L 1914 448 
L 1914 0 
L 1274 0 
z
" transform="scale(0.015625)"/>
       <path id="IBMPlexSans-65" d="M 1786 -77 
Q 1446 -77 1174 44 
Q 902 166 707 393 
Q 512 621 406 937 
Q 301 1254 301 1651 
Q 301 2042 406 2362 
Q 512 2682 707 2909 
Q 902 3136 1174 3257 
Q 1446 3379 1786 3379 
Q 2118 3379 2380 3257 
Q 2643 3136 2828 2921 
Q 3014 2707 3113 2412 
Q 3213 2118 3213 1766 
L 3213 1523 
L 838 1523 
L 838 1370 
Q 838 1158 905 976 
Q 973 794 1097 659 
Q 1222 525 1404 448 
Q 1587 371 1818 371 
Q 2131 371 2364 518 
Q 2598 666 2726 941 
L 3091 678 
Q 2931 339 2592 131 
Q 2253 -77 1786 -77 
z
M 1786 2950 
Q 1574 2950 1401 2876 
Q 1229 2803 1104 2668 
Q 979 2534 908 2352 
Q 838 2170 838 1952 
L 838 1907 
L 2662 1907 
L 2662 1978 
Q 2662 2419 2422 2684 
Q 2182 2950 1786 2950 
z
" transform="scale(0.015625)"/>
       <path id="IBMPlexSans-73" d="M 1536 -77 
Q 1075 -77 764 99 
Q 454 275 230 570 
L 595 864 
Q 787 621 1024 489 
Q 1261 358 1574 358 
Q 1901 358 2083 499 
Q 2266 640 2266 896 
Q 2266 1088 2141 1225 
Q 2016 1363 1690 1414 
L 1427 1453 
Q 1197 1485 1005 1552 
Q 813 1619 669 1731 
Q 525 1843 445 2009 
Q 365 2176 365 2406 
Q 365 2650 454 2832 
Q 544 3014 701 3136 
Q 858 3258 1075 3318 
Q 1293 3379 1542 3379 
Q 1946 3379 2218 3238 
Q 2490 3098 2694 2848 
L 2355 2541 
Q 2246 2694 2035 2819 
Q 1824 2944 1504 2944 
Q 1184 2944 1021 2806 
Q 858 2669 858 2432 
Q 858 2189 1021 2080 
Q 1184 1971 1491 1920 
L 1747 1882 
Q 2298 1798 2528 1564 
Q 2758 1331 2758 954 
Q 2758 474 2432 198 
Q 2106 -77 1536 -77 
z
" transform="scale(0.015625)"/>
      </defs>
      <use xlink:href="#IBMPlexSans-50"/>
      <use xlink:href="#IBMPlexSans-72" x="60.599991"/>
      <use xlink:href="#IBMPlexSans-6f" x="97.299988"/>
      <use xlink:href="#IBMPlexSans-62" x="153.299973"/>
      <use xlink:href="#IBMPlexSans-61" x="211.299957"/>
      <use xlink:href="#IBMPlexSans-62" x="264.699951"/>
      <use xlink:href="#IBMPlexSans-69" x="322.699936"/>
      <use xlink:href="#IBMPlexSans-6c" x="347.699921"/>
      <use xlink:href="#IBMPlexSans-69" x="374.899918"/>
      <use xlink:href="#IBMPlexSans-74" x="399.899902"/>
      <use xlink:href="#IBMPlexSans-69" x="434.999893"/>
      <use xlink:href="#IBMPlexSans-65" x="459.999878"/>
      <use xlink:href="#IBMPlexSans-73" x="514.899872"/>
     </g>
    </g>
   </g>
   <g id="patch_3">
    <path d="M 69.722983 279 
L 93.39571 279 
L 93.39571 269.94 
L 69.722983 269.94 
z
" clip-path="url(#pd7e7bc595c)" style="fill: #648fff"/>
   </g>
   <g id="patch_4">
    <path d="M 117.068438 279 
L 140.741165 279 
L 140.741165 269.94 
L 117.068438 269.94 
z
" clip-path="url(#pd7e7bc595c)" style="fill: #648fff"/>
   </g>
   <g id="patch_5">
    <path d="M 164.413892 279 
L 188.086619 279 
L 188.086619 269.94 
L 164.413892 269.94 
z
" clip-path="url(#pd7e7bc595c)" style="fill: #648fff"/>
   </g>
   <g id="patch_6">
    <path d="M 211.759347 279 
L 235.432074 279 
L 235.432074 269.94 
L 211.759347 269.94 
z
" clip-path="url(#pd7e7bc595c)" style="fill: #648fff"/>
   </g>
   <g id="patch_7">
    <path d="M 259.104801 279 
L 282.777528 279 
L 282.777528 269.94 
L 259.104801 269.94 
z
" clip-path="url(#pd7e7bc595c)" style="fill: #648fff"/>
   </g>
   <g id="patch_8">
    <path d="M 306.450256 279 
L 330.122983 279 
L 330.122983 269.94 
L 306.450256 269.94 
z
" clip-path="url(#pd7e7bc595c)" style="fill: #648fff"/>
   </g>
   <g id="patch_9">
    <path d="M 353.79571 279 
L 377.468438 279 
L 377.468438 269.94 
L 353.79571 269.94 
z
" clip-path="url(#pd7e7bc595c)" style="fill: #648fff"/>
   </g>
   <g id="patch_10">
    <path d="M 401.141165 279 
L 424.813892 279 
L 424.813892 52.5 
L 401.141165 52.5 
z
" clip-path="url(#pd7e7bc595c)" style="fill: #648fff"/>
   </g>
   <g id="patch_11">
    <path d="M 51.968438 279 
L 51.968438 7.2 
" style="fill: none; stroke: #343a3f; stroke-width: 0.8; stroke-linejoin: miter; stroke-linecap: square"/>
   </g>
   <g id="patch_12">
    <path d="M 51.968438 279 
L 442.568438 279 
" style="fill: none; stroke: #343a3f; stroke-width: 0.8; stroke-linejoin: miter; stroke-linecap: square"/>
   </g>
   <g id="text_15">
    <!-- 0.031 -->
    <g style="fill: #343a3f" transform="translate(68.19919 267.487)scale(0.1 -0.1)">
     <defs>
      <path id="IBMPlexSans-33" d="M 1670 2573 
Q 2125 2573 2352 2781 
Q 2579 2989 2579 3315 
L 2579 3360 
Q 2579 3712 2358 3888 
Q 2138 4064 1779 4064 
Q 1434 4064 1216 3913 
Q 998 3763 858 3507 
L 461 3814 
Q 544 3949 662 4080 
Q 781 4211 941 4313 
Q 1101 4416 1312 4480 
Q 1523 4544 1792 4544 
Q 2074 4544 2323 4470 
Q 2573 4397 2755 4253 
Q 2938 4109 3043 3897 
Q 3149 3686 3149 3418 
Q 3149 3200 3081 3027 
Q 3014 2854 2899 2726 
Q 2784 2598 2627 2508 
Q 2470 2419 2291 2374 
L 2291 2349 
Q 2470 2310 2640 2224 
Q 2810 2138 2941 2000 
Q 3072 1862 3152 1667 
Q 3232 1472 3232 1222 
Q 3232 934 3123 694 
Q 3014 454 2816 284 
Q 2618 115 2336 19 
Q 2054 -77 1715 -77 
Q 1427 -77 1203 -13 
Q 979 51 806 160 
Q 634 269 502 403 
Q 371 538 269 685 
L 672 992 
Q 755 858 854 749 
Q 954 640 1075 563 
Q 1197 486 1350 444 
Q 1504 403 1709 403 
Q 2182 403 2425 617 
Q 2669 832 2669 1229 
L 2669 1280 
Q 2669 1677 2425 1891 
Q 2182 2106 1709 2106 
L 1184 2106 
L 1184 2573 
L 1670 2573 
z
" transform="scale(0.015625)"/>
     </defs>
     <use xlink:href="#IBMPlexSans-30"/>
     <use xlink:href="#IBMPlexSans-2e" x="59.999985"/>
     <use xlink:href="#IBMPlexSans-30" x="87.199982"/>
     <use xlink:href="#IBMPlexSans-33" x="147.199966"/>
     <use xlink:href="#IBMPlexSans-31" x="207.199951"/>
    </g>
   </g>
   <g id="text_16">
    <!-- 0.031 -->
    <g style="fill: #343a3f" transform="translate(115.544645 267.487)scale(0.1 -0.1)">
     <use xlink:href="#IBMPlexSans-30"/>
     <use xlink:href="#IBMPlexSans-2e" x="59.999985"/>
     <use xlink:href="#IBMPlexSans-30" x="87.199982"/>
     <use xlink:href="#IBMPlexSans-33" x="147.199966"/>
     <use xlink:href="#IBMPlexSans-31" x="207.199951"/>
    </g>
   </g>
   <g id="text_17">
    <!-- 0.031 -->
    <g style="fill: #343a3f" transform="translate(162.890099 267.487)scale(0.1 -0.1)">
     <use xlink:href="#IBMPlexSans-30"/>
     <use xlink:href="#IBMPlexSans-2e" x="59.999985"/>
     <use xlink:href="#IBMPlexSans-30" x="87.199982"/>
     <use xlink:href="#IBMPlexSans-33" x="147.199966"/>
     <use xlink:href="#IBMPlexSans-31" x="207.199951"/>
    </g>
   </g>
   <g id="text_18">
    <!-- 0.031 -->
    <g style="fill: #343a3f" transform="translate(210.235554 267.487)scale(0.1 -0.1)">
     <use xlink:href="#IBMPlexSans-30"/>
     <use xlink:href="#IBMPlexSans-2e" x="59.999985"/>
     <use xlink:href="#IBMPlexSans-30" x="87.199982"/>
     <use xlink:href="#IBMPlexSans-33" x="147.199966"/>
     <use xlink:href="#IBMPlexSans-31" x="207.199951"/>
    </g>
   </g>
   <g id="text_19">
    <!-- 0.031 -->
    <g style="fill: #343a3f" transform="translate(257.581009 267.487)scale(0.1 -0.1)">
     <use xlink:href="#IBMPlexSans-30"/>
     <use xlink:href="#IBMPlexSans-2e" x="59.999985"/>
     <use xlink:href="#IBMPlexSans-30" x="87.199982"/>
     <use xlink:href="#IBMPlexSans-33" x="147.199966"/>
     <use xlink:href="#IBMPlexSans-31" x="207.199951"/>
    </g>
   </g>
   <g id="text_20">
    <!-- 0.031 -->
    <g style="fill: #343a3f" transform="translate(304.926463 267.487)scale(0.1 -0.1)">
     <use xlink:href="#IBMPlexSans-30"/>
     <use xlink:href="#IBMPlexSans-2e" x="59.999985"/>
     <use xlink:href="#IBMPlexSans-30" x="87.199982"/>
     <use xlink:href="#IBMPlexSans-33" x="147.199966"/>
     <use xlink:href="#IBMPlexSans-31" x="207.199951"/>
    </g>
   </g>
   <g id="text_21">
    <!-- 0.031 -->
    <g style="fill: #343a3f" transform="translate(352.271918 267.487)scale(0.1 -0.1)">
     <use xlink:href="#IBMPlexSans-30"/>
     <use xlink:href="#IBMPlexSans-2e" x="59.999985"/>
     <use xlink:href="#IBMPlexSans-30" x="87.199982"/>
     <use xlink:href="#IBMPlexSans-33" x="147.199966"/>
     <use xlink:href="#IBMPlexSans-31" x="207.199951"/>
    </g>
   </g>
   <g id="text_22">
    <!-- 0.781 -->
    <g style="fill: #343a3f" transform="translate(399.617372 39.175)scale(0.1 -0.1)">
     <defs>
      <path id="IBMPlexSans-37" d="M 1120 0 
L 2829 4006 
L 922 4006 
L 922 3174 
L 442 3174 
L 442 4467 
L 3373 4467 
L 3373 3994 
L 1696 0 
L 1120 0 
z
" transform="scale(0.015625)"/>
     </defs>
     <use xlink:href="#IBMPlexSans-30"/>
     <use xlink:href="#IBMPlexSans-2e" x="59.999985"/>
     <use xlink:href="#IBMPlexSans-37" x="87.199982"/>
     <use xlink:href="#IBMPlexSans-38" x="147.199966"/>
     <use xlink:href="#IBMPlexSans-31" x="207.199951"/>
    </g>
   </g>
  </g>
 </g>
 <defs>
  <clipPath id="pd7e7bc595c">
   <rect x="51.968438" y="7.2" width="390.6" height="271.8"/>
  </clipPath>
 </defs>
</svg>
